<svg id="Layer_1" data-name="Layer 1" xmlns="http://www.w3.org/2000/svg" viewBox="0 0 235.28 235.28"><defs><style>.cls-1{fill:#203468;}.cls-2{fill:#fdd0b1;}</style></defs><circle class="cls-1" cx="117.64" cy="117.64" r="117.64"/><path class="cls-2" d="M31.6,92a16,16,0,0,1,4.5,2.13A11,11,0,0,1,39,97a10.76,10.76,0,0,1,1.44,3.51,14.82,14.82,0,0,1,.27,3.87,19.38,19.38,0,0,1-.93,4,41.23,41.23,0,0,1-2.25,5.46,49.45,49.45,0,0,1-3.54,6,37.74,37.74,0,0,1-4.77,5.7A28.4,28.4,0,0,1,23.26,130a18.9,18.9,0,0,1-7,2.31,5,5,0,0,1-2.72-.29,9.15,9.15,0,0,1-2.31-1.47,8.23,8.23,0,0,1-1.56-1.77c-.39-.6-.53-1-.45-1.26a7.37,7.37,0,0,0,4.86,1.29A12.88,12.88,0,0,0,19.39,127a23.83,23.83,0,0,0,5.22-4,38.18,38.18,0,0,0,4.65-5.79,41.4,41.4,0,0,0,3.6-6.81,31.41,31.41,0,0,0,2-7.2q.12-.84.18-1.89a12.31,12.31,0,0,0-.09-2.1,7.1,7.1,0,0,0-.6-2A4.28,4.28,0,0,0,33,95.58,8.14,8.14,0,0,0,29.2,94.2a14.34,14.34,0,0,0-4.62.3,18.88,18.88,0,0,0-4.83,1.86,21.64,21.64,0,0,0-4.53,3.3,20.71,20.71,0,0,0-3.69,4.65,19.69,19.69,0,0,0-2.31,5.85A14,14,0,0,0,8.86,113,9.6,9.6,0,0,0,9,115a4.1,4.1,0,0,0,.48,1.32q.3.51.48.87c-.09.08-.43-.08-1-.48A11.63,11.63,0,0,1,6.94,115a10.81,10.81,0,0,1-1.89-2.66A6.06,6.06,0,0,1,4.34,109a12,12,0,0,1,1-3.75A22.73,22.73,0,0,1,8,100.79a30.8,30.8,0,0,1,4-4.47,19.67,19.67,0,0,1,5.34-3.53A20.7,20.7,0,0,1,24,91.11,19.87,19.87,0,0,1,31.6,92Zm-9.06,7.74a1.72,1.72,0,0,1,1.26-.66,4.22,4.22,0,0,1,1.8.15,4.69,4.69,0,0,1,1.53.77,1.16,1.16,0,0,1,.45,1.23q-.31.42-1.17,1.86c-.58,1-1.24,2.13-2,3.51s-1.55,2.89-2.37,4.53-1.61,3.27-2.35,4.87-1.39,3.11-2,4.53A17.66,17.66,0,0,0,16.66,124a4.69,4.69,0,0,1-1.29.15,11.46,11.46,0,0,1-2-.08,7.26,7.26,0,0,1-2-.51c-.57-.24-.84-.58-.84-1,.52-1.33,1.18-2.81,2-4.44s1.62-3.23,2.49-4.89,1.71-3.27,2.58-4.83,1.64-3,2.34-4.2,1.29-2.26,1.77-3.06S22.45,99.9,22.54,99.78Z"/><path class="cls-2" d="M55.12,120.6l.83.27c.32.1.67.19,1,.27q-.42.72-1.29,2.52c-.58,1.2-1.25,2.46-2,3.78a42.43,42.43,0,0,1-2.32,3.6,5.49,5.49,0,0,1-2.22,2h-.06a2.77,2.77,0,0,1-2-.6,3.51,3.51,0,0,1-1.13-1.4,7.24,7.24,0,0,1-.71-3.33,21.51,21.51,0,0,1,.38-4,27,27,0,0,1,1.14-4.14c.5-1.38,1-2.71,1.6-4a3.61,3.61,0,0,1-1,.87,4.82,4.82,0,0,1-1.26.48,3.58,3.58,0,0,1-1.34.12,3.25,3.25,0,0,1-1.14-.33l-2.26,4.91a2.42,2.42,0,0,1-.71-.42l-.54-.3a.88.88,0,0,1-.36-.24A2.34,2.34,0,0,1,40,120a7.45,7.45,0,0,0,.54-1.26q.28-.72.66-1.56l.65-1.56a3.31,3.31,0,0,1-1.17-1.8,3.91,3.91,0,0,1,0-1.8,3.51,3.51,0,0,1,.79-1.5,4.09,4.09,0,0,1,1.11-1,3.39,3.39,0,0,1,2-.39,2.85,2.85,0,0,1,1.39.6,1.76,1.76,0,0,1,.59,1.08,1.19,1.19,0,0,1-.25,1.09,1.46,1.46,0,0,1-.72.39l-.73.15a.56.56,0,0,0-.38.21c-.06.1,0,.27.27.51a1.4,1.4,0,0,0,1.32.39,5.93,5.93,0,0,0,2-.6,10.76,10.76,0,0,0,2.17-1.38,8.76,8.76,0,0,0,1.79-2,1.72,1.72,0,0,1,1.5,0,5.92,5.92,0,0,1,1.57.93,5.36,5.36,0,0,1,1.1,1.23c.26.42.31.69.16.81a6.57,6.57,0,0,0-2,2.21,31.06,31.06,0,0,0-1.92,3.6c-.63,1.34-1.21,2.74-1.75,4.2s-1,2.8-1.31,4a20.92,20.92,0,0,0-.67,3c-.1.78,0,1.17.21,1.17h.19q.33-.42,1.14-1.56c.51-.76,1.08-1.64,1.67-2.64s1.19-2,1.77-3.09S54.76,121.44,55.12,120.6Z"/><path class="cls-2" d="M70,115a9.5,9.5,0,0,1,.51,3.66,19,19,0,0,1-.66,4.11,19.27,19.27,0,0,1-1.62,4,17.63,17.63,0,0,1-2.34,3.39,10.22,10.22,0,0,1-2.82,2.25,5.13,5.13,0,0,1-3.09.63,8.64,8.64,0,0,1-2.34-.69A8.34,8.34,0,0,1,55.47,131a5.3,5.3,0,0,1-1.71-2.91,9.53,9.53,0,0,1,0-3.45A15.08,15.08,0,0,1,54.84,121a27.29,27.29,0,0,1,1.77-3.39,5,5,0,0,1-.09-1.23,6.49,6.49,0,0,1,.21-1.38,4.62,4.62,0,0,1,1.17-2.16,8.69,8.69,0,0,1,2.19-1.71,8.49,8.49,0,0,1,2.73-.93,6.54,6.54,0,0,1,2.85.15,6,6,0,0,1,2.52,1.5A7.7,7.7,0,0,1,70,115Zm-11.22,15.7q.72,1.32,1.77.72a7,7,0,0,0,2.13-2.22,28.83,28.83,0,0,0,1.67-2.91A34.75,34.75,0,0,0,65.82,123a25,25,0,0,0,1-3.18,9.56,9.56,0,0,0,.3-2.61,8.25,8.25,0,0,0-.78-3.34,3.38,3.38,0,0,0-1.5-1.56,2.11,2.11,0,0,0-1.74,0,3.25,3.25,0,0,0-1.47,1.32,3.13,3.13,0,0,1,2.37.9q.57.78.39,1.14a.91.91,0,0,1-.54.48,1.81,1.81,0,0,0-.78.72,23,23,0,0,0-1.73,2.85,29.81,29.81,0,0,0-1.65,3.81,23,23,0,0,0-1,4A6.66,6.66,0,0,0,58.77,130.74Z"/><path class="cls-2" d="M85.41,110.22a4.73,4.73,0,0,1,4,.81,3.34,3.34,0,0,1,.9,3.45c-.16.72-.5,1.86-1,3.42s-1.12,3.29-1.8,4.89a39.14,39.14,0,0,1-2.46,4.83,10.51,10.51,0,0,1-3,3.36,4.82,4.82,0,0,1-2.1.48,7.19,7.19,0,0,1-3.9-1.14,6.24,6.24,0,0,1-1.32-1.08q-.66,2.16-1.23,4.26a36.55,36.55,0,0,0-.87,4,30.16,30.16,0,0,0-.29,3.54,8,8,0,0,0,.3,2.76,2.17,2.17,0,0,1-2,.3A3.43,3.43,0,0,1,69.05,143a8.45,8.45,0,0,1-.78-3.84,24.77,24.77,0,0,1,.54-5q.54-2.7,1.47-5.76c.62-2,1.28-4.09,2-6.15s1.33-4.1,2-6.12,1.21-3.93,1.65-5.73q.12-.36.75-.48a4.35,4.35,0,0,1,1.44,0,5.24,5.24,0,0,1,1.62.54,4.88,4.88,0,0,1,1.35,1c.08.08,0,.42-.18,1s-.48,1.33-.84,2.22a28.41,28.41,0,0,1,2.76-2.94A5.29,5.29,0,0,1,85.41,110.22Zm.54,2.1q.06-.24-.81.48a26.92,26.92,0,0,0-2.13,2q-1.26,1.32-2.76,3a39.68,39.68,0,0,0-2.7,3.36q-.6,1.62-1.23,3.39t-1.17,3.57a5.42,5.42,0,0,0,.9.6,1,1,0,0,0,1,0c.24-.16.7-.49,1.38-1A13,13,0,0,0,80.76,125a30.08,30.08,0,0,0,2.67-4.89A44.4,44.4,0,0,0,86,112.32Z"/><path class="cls-2" d="M102.34,110.22a4.73,4.73,0,0,1,4,.81,3.34,3.34,0,0,1,.9,3.45c-.16.72-.5,1.86-1,3.42s-1.12,3.29-1.8,4.89a39.14,39.14,0,0,1-2.46,4.83A10.51,10.51,0,0,1,99,131a4.82,4.82,0,0,1-2.1.48,7.19,7.19,0,0,1-3.9-1.14,6.24,6.24,0,0,1-1.32-1.08q-.66,2.16-1.23,4.26a36.55,36.55,0,0,0-.87,4,30.21,30.21,0,0,0-.31,3.54,8,8,0,0,0,.3,2.76,2.17,2.17,0,0,1-2,.3A3.43,3.43,0,0,1,86,143a8.45,8.45,0,0,1-.78-3.84,24.77,24.77,0,0,1,.54-5q.54-2.7,1.47-5.76c.62-2,1.28-4.09,2-6.15s1.33-4.1,2-6.12,1.21-3.93,1.65-5.73q.12-.36.75-.48a4.35,4.35,0,0,1,1.44,0,5.24,5.24,0,0,1,1.62.54,4.88,4.88,0,0,1,1.35,1c.08.08,0,.42-.18,1s-.48,1.33-.84,2.22a28.41,28.41,0,0,1,2.76-2.94A5.35,5.35,0,0,1,102.34,110.22Zm.54,2.1q.06-.24-.81.48a26.92,26.92,0,0,0-2.13,2q-1.26,1.32-2.76,3a39.68,39.68,0,0,0-2.7,3.36q-.6,1.62-1.23,3.39t-1.17,3.57a5.42,5.42,0,0,0,.9.6,1,1,0,0,0,1,0c.24-.16.7-.49,1.38-1A12.93,12.93,0,0,0,97.68,125a30.51,30.51,0,0,0,2.66-4.86,44.75,44.75,0,0,0,2.53-7.86Z"/><path class="cls-2" d="M117.69,111.84a23.51,23.51,0,0,0-3.75,4.74,20.83,20.83,0,0,0-2,4.44,13.65,13.65,0,0,0-.63,3.9,12,12,0,0,0,.36,3.15,5.64,5.64,0,0,0,1,2.13,2,2,0,0,0,1.23.84,2.85,2.85,0,0,0,2.28-.9,18.6,18.6,0,0,0,2.61-2.85,44.72,44.72,0,0,0,2.7-4q1.35-2.22,2.43-4.35.48.3.84.57l.78.57q-.78,1.44-1.86,3.63a28.54,28.54,0,0,1-2.57,4.33,15.93,15.93,0,0,1-3.51,3.54A7.67,7.67,0,0,1,113,133a4.81,4.81,0,0,1-3-.93,7.16,7.16,0,0,1-2-2.37,10.73,10.73,0,0,1-1.11-3.21,14.79,14.79,0,0,1-.27-3.39,14.15,14.15,0,0,1,.9-4,24.34,24.34,0,0,1,2.16-4.59,17.53,17.53,0,0,1,2.91-3.69,4.24,4.24,0,0,1,3.21-1.38A7.91,7.91,0,0,1,120.1,111a5.68,5.68,0,0,1,2,6.21,6.66,6.66,0,0,1-1.76,2.88,6,6,0,0,1-3.06,1.59,6.38,6.38,0,0,1-4-.63q.12-.12.63-.72t1.17-1.44a22.34,22.34,0,0,0,1.31-1.87,18.53,18.53,0,0,0,1.11-2,7.06,7.06,0,0,0,.6-1.8A1.42,1.42,0,0,0,117.69,111.84Z"/><path class="cls-2" d="M141.57,100.68a1.87,1.87,0,0,1,1.35-.24,4.68,4.68,0,0,1,1.53.51,3.06,3.06,0,0,1,1.14,1.09,1.44,1.44,0,0,1,.12,1.38,9.55,9.55,0,0,0-2.37,2.62,27,27,0,0,0-2.19,4.11q-1,2.34-1.89,5a52.6,52.6,0,0,0-1.47,5.19q-.6,2.52-.9,4.74a21.71,21.71,0,0,0-.24,3.6v.54l.06.72a1.71,1.71,0,0,0,.15.63q.12.27.3.27c.12,0,.43-.33.93-1s1-1.65,1.59-2.73,1.2-2.21,1.8-3.39,1.12-2.23,1.56-3.15l.75.3a8.17,8.17,0,0,1,.93.48q-.36.66-1.11,2.34t-1.68,3.54a29.5,29.5,0,0,1-2,3.45,5.79,5.79,0,0,1-2.1,2.07.82.82,0,0,1-.48.12,2,2,0,0,1-.54-.06,3,3,0,0,1-1.74-.75,5.25,5.25,0,0,1-1.2-1.53,9.43,9.43,0,0,1-.78-1.92,11.29,11.29,0,0,1-.42-2q-.66,1-1.38,2.07c-.48.72-1,1.38-1.44,2s-.93,1.12-1.35,1.56a3.54,3.54,0,0,1-1,.84c-.72.24-1.54-.09-2.46-1a11.1,11.1,0,0,1-2.28-10.17,19.79,19.79,0,0,1,2.55-5.52,19.07,19.07,0,0,1,3.72-4.2,7.49,7.49,0,0,1,3.54-1.86,3.86,3.86,0,0,1,1.89,1,4.62,4.62,0,0,1,1.11,1.65q.6-1.86,1.29-3.69t1.47-3.45q.72-1.5,1.59-2.94A10.44,10.44,0,0,1,141.57,100.68ZM127,130.8q0,.12.69-.75c.46-.58,1-1.32,1.66-2.22s1.33-1.88,2-2.94,1.23-2,1.71-2.85q.3-1.44.84-3.51t1.26-4.41l-.45-.24a.39.39,0,0,0-.33-.06,12.72,12.72,0,0,0-3.45,2.64,16.8,16.8,0,0,0-2.79,4,16.27,16.27,0,0,0-1.53,5A12.58,12.58,0,0,0,127,130.8Z"/><path class="cls-2" d="M195.34,91.26a9,9,0,0,1-.39,4.38,5.89,5.89,0,0,1-2,2.64,8.16,8.16,0,0,1-3.09,1.32,16.48,16.48,0,0,1-3.57.33,20.65,20.65,0,0,1-3.51-.33q-1.68-.3-2.88-.6-.42-.12-.84-.21l-.9-.21a3.67,3.67,0,0,1,.78,1.86q.12,1-.3,1.26a1.91,1.91,0,0,0-.36.33l-.36.45a17.45,17.45,0,0,0-2.4,4A50.46,50.46,0,0,0,173.4,112q-.93,3-1.68,6t-1.26,5.64q-.51,2.58-.78,4.32a9.64,9.64,0,0,0-.21,2,6.86,6.86,0,0,1,0,1.11,4.31,4.31,0,0,1-.13,1.13,1.76,1.76,0,0,1-.36.69.47.47,0,0,1-.57,0l-2-1.2A3.81,3.81,0,0,1,165,129.6a12.69,12.69,0,0,1-.36-4.47,58.65,58.65,0,0,1,1.23-8.22,54.34,54.34,0,0,1,2.5-8.82A47.38,47.38,0,0,1,171,102.3a23.79,23.79,0,0,1,3-4.2.94.94,0,0,0,.3-.12,54,54,0,0,0-6.72-.42,20,20,0,0,0-5.76.72,4.35,4.35,0,0,0-2.43,1.56,4.61,4.61,0,0,0-.81,2,5.27,5.27,0,0,0,.24,2.46,4.51,4.51,0,0,1-2.7-2.16,5.2,5.2,0,0,1-.55-3.1A6.22,6.22,0,0,1,157,95.92a6.6,6.6,0,0,1,3.15-2.13A18.24,18.24,0,0,1,166,93q3.18.09,6.48.51t6.6.93a41.5,41.5,0,0,0,6.3.51,18.62,18.62,0,0,0,5.55-.78A9.32,9.32,0,0,0,195.34,91.26Z"/><path class="cls-2" d="M177.34,130.8q.06.18.54-.45a20.82,20.82,0,0,0,1.17-1.77q.69-1.14,1.53-2.67t1.65-3.06q.81-1.53,1.53-2.94t1.14-2.37l.78.3a6.13,6.13,0,0,1,1,.48l-.92,1.72-1.42,2.87q-.81,1.59-1.77,3.36t-1.89,3.24a17.16,17.16,0,0,1-1.8,2.43,2.68,2.68,0,0,1-1.47,1,3.61,3.61,0,0,1-2.91-.81,5.14,5.14,0,0,1-1.53-2.76,13.45,13.45,0,0,1-.21-4.2,26.44,26.44,0,0,1,1-5.13q1-2.82,1.92-5.1.84-1.92,1.65-3.57t1.41-1.77a2.58,2.58,0,0,1,1.17-.09,4.07,4.07,0,0,1,1.17.36,2.89,2.89,0,0,1,.9.69,1.48,1.48,0,0,1,.36,1,4.2,4.2,0,0,1-.48,1.38l-1.2,2.49q-.72,1.5-1.5,3.33a29.82,29.82,0,0,0-1.32,3.9,26.64,26.64,0,0,0-.75,4.14A11.46,11.46,0,0,0,177.34,130.8ZM184,101.7a3,3,0,0,1,2,1,2.7,2.7,0,0,1,.66,2.1,2.63,2.63,0,0,1-1.08,1.92,3,3,0,0,1-2.16.6,2.78,2.78,0,0,1-2-1,2.71,2.71,0,0,1-.63-2.1,2.67,2.67,0,0,1,1.05-1.92,2.92,2.92,0,0,1,2.15-.6Z"/><path class="cls-2" d="M214.89,120l.78.48.48.3.36.18a61.68,61.68,0,0,1-3.17,6q-.72,1.14-1.47,2.22a15.71,15.71,0,0,1-1.53,1.92,9.69,9.69,0,0,1-1.62,1.38,2.76,2.76,0,0,1-1.53.54,4.37,4.37,0,0,1-3.33-1,4.9,4.9,0,0,1-1.35-2.58,9.79,9.79,0,0,1-.06-3.24,17.09,17.09,0,0,1,.66-3c.28-.8.61-1.8,1-3l1.14-3.39q.66-1.92,1.32-3.9l-4.32,7.56q-.84,1.5-1.71,3l-1.62,2.79-1.35,2.31q-.6,1-.9,1.56a11.46,11.46,0,0,0,.06,1.17,2.8,2.8,0,0,0,.18.81q.1.33.18.66a2.67,2.67,0,0,1-2.31.06,4,4,0,0,1-2.09-1.79,6.49,6.49,0,0,1-.33-2.4,23.37,23.37,0,0,1,.3-3.12,34.22,34.22,0,0,1,.75-3.45c.32-1.18.65-2.35,1-3.51-.6.92-1.27,1.92-2,3s-1.43,2.13-2.07,3.15-1.34,2-2,2.82-1.09,1.41-1.68,2.07q-.06.84-.09,1.41a2.24,2.24,0,0,1-.15.81,1.45,1.45,0,0,1-.6.6,2.79,2.79,0,0,1-.87.33,2.27,2.27,0,0,1-.9,0,1.28,1.28,0,0,1-.69-.33,4,4,0,0,1-1.14-2.19,12.53,12.53,0,0,1-.24-3.12,24.61,24.61,0,0,1,.42-3.63q.36-1.92.84-3.78a69.66,69.66,0,0,1,3.1-9.42,1.65,1.65,0,0,1,1.32-.57,4.85,4.85,0,0,1,1.77.27,4.71,4.71,0,0,1,1.47.81,1,1,0,0,1,.44,1q-.84,1.92-1.56,3.93t-1.29,3.87q-.57,1.86-.93,3.48t-.54,2.7q3.78-5.46,6.24-9.48t4.38-6.54a1,1,0,0,1,.72,0,6,6,0,0,1,1,.45,11.53,11.53,0,0,1,1,.66,6.48,6.48,0,0,1,.81.66q.3.36,0,1.59a22.16,22.16,0,0,1-1,2.88q-.6,1.59-1.29,3.3t-1.11,3a12,12,0,0,0-.48,1.65q-.18.81-.3,1.53.66-1.08,1.56-2.7t1.92-3.39q1-1.77,2.13-3.54t2.13-3.18a17.3,17.3,0,0,1,1.92-2.28,2.48,2.48,0,0,1,1.5-.87,4.78,4.78,0,0,1,1.83.33,2.4,2.4,0,0,1,1.2,1,3.06,3.06,0,0,1,.36,1.62,5.25,5.25,0,0,1-.69,2.22,27,27,0,0,0-1.47,3.63q-.81,2.37-1.44,4.86a44.94,44.94,0,0,0-.93,4.56,4.85,4.85,0,0,0,.06,2.67q.18.42.81-.12a11.24,11.24,0,0,0,1.44-1.56,25.39,25.39,0,0,0,1.71-2.4q.9-1.4,1.68-2.64t1.35-2.28Q214.71,120.43,214.89,120Z"/><path class="cls-2" d="M223.11,111.84a23.26,23.26,0,0,0-3.77,4.74,21,21,0,0,0-2,4.46,13.65,13.65,0,0,0-.63,3.9,12,12,0,0,0,.36,3.15,5.64,5.64,0,0,0,1,2.13,2,2,0,0,0,1.27.82,2.85,2.85,0,0,0,2.28-.9,18.6,18.6,0,0,0,2.61-2.85,44.72,44.72,0,0,0,2.7-4q1.35-2.22,2.41-4.31.48.3.84.57l.78.57q-.78,1.44-1.86,3.63a30.43,30.43,0,0,1-2.57,4.29,15.93,15.93,0,0,1-3.51,3.54,7.63,7.63,0,0,1-4.68,1.46,4.81,4.81,0,0,1-3-.93,7.16,7.16,0,0,1-2-2.37,10.73,10.73,0,0,1-1.11-3.21,14.79,14.79,0,0,1-.27-3.39,14.15,14.15,0,0,1,.9-4,24.34,24.34,0,0,1,2.16-4.59,17.53,17.53,0,0,1,2.91-3.69,4.24,4.24,0,0,1,3.21-1.38,7.91,7.91,0,0,1,4.35,1.47,5.68,5.68,0,0,1,2,6.21,6.59,6.59,0,0,1-1.77,2.88,6,6,0,0,1-3.06,1.59,6.37,6.37,0,0,1-4-.63q.12-.12.63-.72t1.17-1.44a21.22,21.22,0,0,0,1.32-1.89,18.53,18.53,0,0,0,1.11-2,7.06,7.06,0,0,0,.6-1.8A1.45,1.45,0,0,0,223.11,111.84Z"/></svg>