<svg id="Layer_1" data-name="Layer 1" xmlns="http://www.w3.org/2000/svg" viewBox="0 0 203.2 203.2"><defs><style>.cls-1{fill:#203568;}.cls-2{fill:#fff;}</style></defs><circle class="cls-1" cx="101.6" cy="101.6" r="101.6"/><path class="cls-2" d="M159.5,85.9V78.5a29.29,29.29,0,0,0-.4-5.3,33.32,33.32,0,0,0-9.3-18.8A33.8,33.8,0,0,0,125,43.8H78.6A34.68,34.68,0,0,0,43.8,78.5v46.4a30,30,0,0,0,.4,5.3A34,34,0,0,0,56.8,152,33.21,33.21,0,0,0,78,159.6h47.3a31.89,31.89,0,0,0,4.2-.3,32.55,32.55,0,0,0,15.8-6.4c9.4-7.1,14.1-16.5,14.2-28Zm-13.4,38.8c-.1,8.7-4.1,15.2-11.9,19.3a19.14,19.14,0,0,1-8.9,2.1H78.6a21.2,21.2,0,0,1-20.8-16.3,17.4,17.4,0,0,1-.6-4.5V78A21.25,21.25,0,0,1,78.7,57.2h46.6A21.34,21.34,0,0,1,145.8,74a23.15,23.15,0,0,1,.5,4.6v14C146.1,103.1,146.1,114,146.1,124.7Z"/><path class="cls-2" d="M102.1,69.3a32.3,32.3,0,1,0-.6,64.6h.1a32.49,32.49,0,0,0,22.9-9.5,32.08,32.08,0,0,0,9.5-22.8A32.67,32.67,0,0,0,102.1,69.3ZM115,115a18.66,18.66,0,0,1-13.4,5.5h0a19,19,0,0,1-18.9-18.9,19,19,0,0,1,37.9,0A19.62,19.62,0,0,1,115,115Z"/><path class="cls-2" d="M132.3,65.1h0a6.7,6.7,0,0,0-.1,13.4h0a6.34,6.34,0,0,0,4.7-2,6.65,6.65,0,0,0-4.6-11.4Z"/></svg>