<svg id="Layer_1" data-name="Layer 1" xmlns="http://www.w3.org/2000/svg" viewBox="0 0 203.2 203.2"><defs><style>.cls-1{fill:#203568;}.cls-2{fill:#fff;}</style></defs><circle class="cls-1" cx="101.6" cy="101.6" r="101.6"/><path class="cls-2" d="M107.4,92.8A24.06,24.06,0,0,1,122.8,82a32.68,32.68,0,0,1,19.3,1.3c7.3,2.8,11.2,8.6,13.2,16a70.82,70.82,0,0,1,1.8,17.8v38c0,1.7,0,1.7-1.7,1.7H135.3c-1.2,0-1.5-.4-1.5-1.5,0-12.6.1-25.3,0-37.9a31.15,31.15,0,0,0-1.2-8.5c-1.7-6-6.3-7.7-11.7-7.4a12.85,12.85,0,0,0-7.5,2.6c-2.8,2.3-4,5.6-4.5,9a53.64,53.64,0,0,0-.5,7c-.1,11.7,0,23.4,0,35.1,0,1.5,0,1.5-1.5,1.5H86.8c-1.1,0-1.5-.3-1.5-1.5V84.3c0-1.1.2-1.5,1.5-1.5,6.4.1,12.9,0,19.3,0,1.1,0,1.5.3,1.5,1.4C107.4,87.2,107.4,90,107.4,92.8Z"/><path class="cls-2" d="M48,119.9V84.5C48,83,48,83,49.5,83H69.6c1.5,0,1.5,0,1.5,1.5v70.7c0,1.5,0,1.5-1.5,1.5H49.5c-1.5,0-1.5,0-1.5-1.5Z"/><path class="cls-2" d="M59.7,46.4A13.45,13.45,0,1,1,46.2,59.8,13.52,13.52,0,0,1,59.7,46.4Z"/></svg>