<svg id="Layer_1" data-name="Layer 1" xmlns="http://www.w3.org/2000/svg" viewBox="0 0 203.2 203.2"><defs><style>.cls-1{fill:#203568;}.cls-2{fill:#fff;}</style></defs><circle class="cls-1" cx="101.6" cy="101.6" r="101.6"/><path class="cls-2" d="M40.6,141.4c13.3.5,25-2.9,35.5-11.1-11-1.4-18.7-6.9-22.8-17.2,3.6-.2,6.9-.4,10.2-.5a1.7,1.7,0,0,0-.1-.7c-13.3-5.9-19.7-14-19.2-24.4,3.4.9,6.8,1.9,10.2,2.8a4.23,4.23,0,0,0,.5-.7c-10.8-9.3-13.2-20.3-7.4-33.5,14,16.2,31.2,25.1,52.5,26.6-.1-2.1-.3-4-.3-5.8.1-10.8,5.2-18.8,14.9-23.1s18.9-2.8,27,4.1c1.6,1.3,2.9,1.7,4.6,1,4.2-1.6,8.5-3.1,12.8-4.7-1.7,5.2-5.2,9.2-9.7,12.5a3,3,0,0,0,.4.8c4.1-1.1,8.2-2.2,12.4-3.3l.5.5c-3.6,3.5-7.3,7-10.8,10.7a5.21,5.21,0,0,0-1.4,3c.5,31.4-20.3,65-57.1,72.2-18,3.5-35.2,1-51.2-8.1A7.17,7.17,0,0,0,40.6,141.4Z"/></svg>