<svg id="Layer_1" data-name="Layer 1" xmlns="http://www.w3.org/2000/svg" viewBox="0 0 203.2 203.2"><defs><style>.cls-1{fill:#203568;}.cls-2{fill:#fff;}</style></defs><circle class="cls-1" cx="101.6" cy="101.6" r="101.6"/><path class="cls-2" d="M110.4,130.9v27.3c0,1.6-.4,2.1-2.1,2.1q-10-.15-20.1,0c-1.8,0-2.3-.4-2.3-2.3.1-17.9,0-35.8.1-53.7,0-2.1-.3-3-2.7-2.8s-4.9,0-7.4.1c-1.2,0-1.7-.2-1.6-1.5q.15-8.85,0-17.7c0-1.3.5-1.6,1.6-1.5,2.7.1,5.3-.1,8,.1,1.7.1,2-.5,2-2.1-.1-4-.1-7.9,0-11.9.1-6.6,1.8-12.5,6.5-17.4a21.17,21.17,0,0,1,14.5-6.3c6.6-.3,13.1-.1,19.7-.2,1.3,0,1.8.4,1.7,1.7-.1,5.6-.1,11.3,0,16.9,0,1.4-.5,1.7-1.7,1.7-3.5-.1-7.1-.1-10.6,0-3.9,0-5.7,1.8-5.7,5.7-.1,3.4,0,6.8,0,10.2,0,1.4.5,1.7,1.8,1.7,5-.1,10,0,14.9-.1,1.6,0,1.9.4,1.7,2-.6,5.5-1.2,11-1.5,16.6-.1,2-.8,2.3-2.6,2.3-4.1-.1-8.2,0-12.3-.1-1.7-.1-2,.5-2,2.1C110.4,112.7,110.4,121.8,110.4,130.9Z"/></svg>