<svg id="Layer_1" data-name="Layer 1" xmlns="http://www.w3.org/2000/svg" viewBox="0 0 226.63 53.21"><defs><style>.cls-1{fill:#fdd0b1;}</style></defs><path class="cls-1" d="M27.26,1a15.69,15.69,0,0,1,4.5,2.13A10.9,10.9,0,0,1,34.61,6a10.59,10.59,0,0,1,1.44,3.51,14.67,14.67,0,0,1,.27,3.87,18.93,18.93,0,0,1-.93,4,41.21,41.21,0,0,1-2.25,5.46,49.57,49.57,0,0,1-3.54,6,37.74,37.74,0,0,1-4.77,5.7,28.4,28.4,0,0,1-5.91,4.44,19,19,0,0,1-7,2.31A5,5,0,0,1,9.2,41a9.3,9.3,0,0,1-2.31-1.47,8.33,8.33,0,0,1-1.56-1.77c-.39-.6-.53-1-.45-1.26a7.39,7.39,0,0,0,4.86,1.29A12.9,12.9,0,0,0,15.05,36,24,24,0,0,0,20.27,32a37.67,37.67,0,0,0,4.65-5.79,41.72,41.72,0,0,0,3.6-6.81,30.9,30.9,0,0,0,2-7.2q.12-.84.18-1.89a11.36,11.36,0,0,0-.09-2.1,7.06,7.06,0,0,0-.6-2A4.2,4.2,0,0,0,28.7,4.54a8.05,8.05,0,0,0-3.84-1.38,14.07,14.07,0,0,0-4.62.3,18.75,18.75,0,0,0-4.83,1.86,21.67,21.67,0,0,0-4.53,3.3,20.78,20.78,0,0,0-3.69,4.65,20,20,0,0,0-2.31,5.85A14.84,14.84,0,0,0,4.52,22a9.29,9.29,0,0,0,.18,2,4.3,4.3,0,0,0,.48,1.32q.3.51.48.87c-.09.08-.43-.08-1-.48A11.91,11.91,0,0,1,2.6,24,11.19,11.19,0,0,1,.71,21.34,6.16,6.16,0,0,1,0,18a12.08,12.08,0,0,1,1.05-3.75,23,23,0,0,1,2.61-4.5,30.63,30.63,0,0,1,4-4.47A19.62,19.62,0,0,1,13,1.75,20.49,20.49,0,0,1,19.61.07,19.75,19.75,0,0,1,27.26,1ZM18.2,8.74a1.69,1.69,0,0,1,1.26-.66,4.25,4.25,0,0,1,1.8.15A4.42,4.42,0,0,1,22.79,9a1.13,1.13,0,0,1,.45,1.23q-.31.42-1.17,1.86t-2,3.51q-1.14,2.07-2.37,4.53T15.35,25q-1.11,2.4-1.95,4.53A18.13,18.13,0,0,0,12.32,33a4.74,4.74,0,0,1-1.29.15A12.33,12.33,0,0,1,9,33.07,7.48,7.48,0,0,1,7,32.56c-.57-.24-.84-.58-.84-1q.78-2,2-4.44c.8-1.6,1.62-3.23,2.49-4.89s1.71-3.27,2.58-4.83,1.64-3,2.34-4.2,1.29-2.26,1.77-3.06S18.11,8.86,18.2,8.74Z"/><path class="cls-1" d="M50.78,29.56l.83.27c.32.1.67.19,1,.27q-.42.72-1.29,2.52c-.58,1.2-1.25,2.46-2,3.78A41.63,41.63,0,0,1,47,40a5.48,5.48,0,0,1-2.22,2h-.06a2.83,2.83,0,0,1-2-.6A3.67,3.67,0,0,1,41.59,40a7.35,7.35,0,0,1-.71-3.33,21.36,21.36,0,0,1,.38-4,26.6,26.6,0,0,1,1.14-4.14c.5-1.38,1-2.71,1.6-4a3.53,3.53,0,0,1-1,.87,5.1,5.1,0,0,1-1.26.48A3.69,3.69,0,0,1,40.4,26a3.49,3.49,0,0,1-1.14-.33L37,30.58a2.83,2.83,0,0,1-.71-.42l-.54-.3a1.11,1.11,0,0,1-.36-.24q0-.12.3-.66t.54-1.26q.29-.72.66-1.56l.65-1.56a3.39,3.39,0,0,1-1.17-1.8,3.91,3.91,0,0,1,0-1.8,3.51,3.51,0,0,1,.79-1.5,4.11,4.11,0,0,1,1.11-1,3.35,3.35,0,0,1,2-.39,2.82,2.82,0,0,1,1.39.6,1.72,1.72,0,0,1,.59,1.08A1.19,1.19,0,0,1,42,20.86a1.5,1.5,0,0,1-.72.39l-.73.15a.53.53,0,0,0-.38.21c-.06.1,0,.27.27.51a1.44,1.44,0,0,0,1.32.39,6,6,0,0,0,2-.6,10.91,10.91,0,0,0,2.17-1.38,8.89,8.89,0,0,0,1.79-2,1.71,1.71,0,0,1,1.5,0,5.71,5.71,0,0,1,1.57.93,5.36,5.36,0,0,1,1.1,1.23c.26.42.31.69.16.81A6.62,6.62,0,0,0,50,23.71a30,30,0,0,0-1.92,3.6c-.63,1.34-1.21,2.74-1.75,4.2s-1,2.8-1.31,4a21,21,0,0,0-.67,3c-.1.78,0,1.17.21,1.17h.19q.34-.42,1.14-1.56c.51-.76,1.08-1.64,1.67-2.64s1.19-2,1.77-3.09S50.42,30.4,50.78,29.56Z"/><path class="cls-1" d="M65.65,24a9.29,9.29,0,0,1,.51,3.66,18.52,18.52,0,0,1-.66,4.11,19.23,19.23,0,0,1-1.62,4,17.45,17.45,0,0,1-2.34,3.39,10.21,10.21,0,0,1-2.82,2.25,5.21,5.21,0,0,1-3.09.63,9,9,0,0,1-2.34-.69A8.53,8.53,0,0,1,51.13,40a5.3,5.3,0,0,1-1.71-2.91,9.5,9.5,0,0,1,0-3.45A15.09,15.09,0,0,1,50.5,30a28.37,28.37,0,0,1,1.77-3.39,5,5,0,0,1-.09-1.23A7,7,0,0,1,52.39,24a4.62,4.62,0,0,1,1.17-2.16,8.39,8.39,0,0,1,2.19-1.71,8.49,8.49,0,0,1,2.73-.93,6.5,6.5,0,0,1,2.85.15,5.89,5.89,0,0,1,2.52,1.5A7.56,7.56,0,0,1,65.65,24ZM54.43,39.7q.72,1.32,1.77.72a6.9,6.9,0,0,0,2.13-2.22A28.9,28.9,0,0,0,60,35.29,34,34,0,0,0,61.48,32a25,25,0,0,0,1-3.18,9.4,9.4,0,0,0,.3-2.61A8.11,8.11,0,0,0,62,22.87a3.34,3.34,0,0,0-1.5-1.56,2.11,2.11,0,0,0-1.74,0,3.18,3.18,0,0,0-1.47,1.32,3.09,3.09,0,0,1,2.37.9q.57.78.39,1.14a.93.93,0,0,1-.54.48,1.87,1.87,0,0,0-.78.72A23.28,23.28,0,0,0,57,28.72a31.24,31.24,0,0,0-1.65,3.81,23.24,23.24,0,0,0-1,4A6.73,6.73,0,0,0,54.43,39.7Z"/><path class="cls-1" d="M81.07,19.18a4.69,4.69,0,0,1,4,.81,3.35,3.35,0,0,1,.9,3.45q-.24,1.08-1,3.42a51.16,51.16,0,0,1-1.8,4.89,37.73,37.73,0,0,1-2.46,4.83,10.43,10.43,0,0,1-3,3.36,4.88,4.88,0,0,1-2.1.48,7.1,7.1,0,0,1-2.07-.3,7.26,7.26,0,0,1-1.83-.84,6.37,6.37,0,0,1-1.32-1.08q-.66,2.16-1.23,4.26a37.46,37.46,0,0,0-.87,4A30.34,30.34,0,0,0,68,50a8.22,8.22,0,0,0,.3,2.76,2.18,2.18,0,0,1-2,.3,3.44,3.44,0,0,1-1.59-1.14,8.53,8.53,0,0,1-.78-3.84,25.53,25.53,0,0,1,.54-5q.54-2.7,1.47-5.76t2-6.15q1-3.09,2-6.12t1.65-5.73q.12-.36.75-.48a4.33,4.33,0,0,1,1.44,0,5.15,5.15,0,0,1,1.62.54,4.71,4.71,0,0,1,1.35,1q.12.12-.18,1t-.84,2.22a27.8,27.8,0,0,1,2.76-2.94A5.31,5.31,0,0,1,81.07,19.18Zm.54,2.1q.06-.24-.81.48a26.24,26.24,0,0,0-2.13,2q-1.26,1.32-2.76,3a39.74,39.74,0,0,0-2.7,3.36q-.6,1.62-1.23,3.39t-1.17,3.57a5.84,5.84,0,0,0,.9.6.94.94,0,0,0,1,0q.36-.24,1.38-1A13,13,0,0,0,76.42,34a30.16,30.16,0,0,0,2.67-4.89A44.52,44.52,0,0,0,81.61,21.28Z"/><path class="cls-1" d="M98,19.18a4.69,4.69,0,0,1,4,.81,3.35,3.35,0,0,1,.9,3.45q-.24,1.08-1,3.42a51.16,51.16,0,0,1-1.8,4.89,37.73,37.73,0,0,1-2.46,4.83,10.43,10.43,0,0,1-3,3.36,4.88,4.88,0,0,1-2.1.48,7.1,7.1,0,0,1-2.07-.3,7.26,7.26,0,0,1-1.83-.84,6.37,6.37,0,0,1-1.32-1.08q-.66,2.16-1.23,4.26a37.46,37.46,0,0,0-.87,4A30.34,30.34,0,0,0,84.91,50a8.22,8.22,0,0,0,.3,2.76,2.18,2.18,0,0,1-2,.3,3.44,3.44,0,0,1-1.59-1.14,8.53,8.53,0,0,1-.78-3.84,25.53,25.53,0,0,1,.54-5q.54-2.7,1.47-5.76t2-6.15q1-3.09,2-6.12t1.65-5.73q.12-.36.75-.48a4.33,4.33,0,0,1,1.44,0,5.15,5.15,0,0,1,1.62.54,4.71,4.71,0,0,1,1.35,1q.12.12-.18,1t-.84,2.22a27.8,27.8,0,0,1,2.76-2.94A5.31,5.31,0,0,1,98,19.18Zm.54,2.1q.06-.24-.81.48a26.24,26.24,0,0,0-2.13,2q-1.26,1.32-2.76,3a39.74,39.74,0,0,0-2.7,3.36q-.6,1.62-1.23,3.39t-1.17,3.57a5.84,5.84,0,0,0,.9.6.94.94,0,0,0,1,0q.36-.24,1.38-1A13,13,0,0,0,93.34,34,30.16,30.16,0,0,0,96,29.14,44.52,44.52,0,0,0,98.53,21.28Z"/><path class="cls-1" d="M113.35,20.8a23.25,23.25,0,0,0-3.75,4.74,21.12,21.12,0,0,0-2,4.44,13.63,13.63,0,0,0-.63,3.9,12.3,12.3,0,0,0,.36,3.15,5.71,5.71,0,0,0,1,2.13,2,2,0,0,0,1.23.84,2.86,2.86,0,0,0,2.28-.9,18.63,18.63,0,0,0,2.61-2.85q1.35-1.77,2.7-4t2.43-4.35q.48.3.84.57l.78.57q-.78,1.44-1.86,3.63A29.48,29.48,0,0,1,116.77,37a15.93,15.93,0,0,1-3.51,3.54A7.67,7.67,0,0,1,108.61,42a4.88,4.88,0,0,1-3-.93,7.26,7.26,0,0,1-2-2.37,10.88,10.88,0,0,1-1.11-3.21,15.38,15.38,0,0,1-.27-3.39,14.26,14.26,0,0,1,.9-4,24.63,24.63,0,0,1,2.16-4.59,17.33,17.33,0,0,1,2.91-3.69,4.23,4.23,0,0,1,3.21-1.38,7.9,7.9,0,0,1,4.35,1.47,5.74,5.74,0,0,1,2,2.85,5.83,5.83,0,0,1,0,3.36A6.63,6.63,0,0,1,116,29a6.09,6.09,0,0,1-3.06,1.59,6.43,6.43,0,0,1-4.05-.63q.12-.12.63-.72t1.17-1.44A22.08,22.08,0,0,0,112,25.93a18.77,18.77,0,0,0,1.11-2,7.31,7.31,0,0,0,.6-1.8A1.41,1.41,0,0,0,113.35,20.8Z"/><path class="cls-1" d="M137.23,9.64a1.87,1.87,0,0,1,1.35-.24,4.61,4.61,0,0,1,1.53.51A3,3,0,0,1,141.25,11a1.42,1.42,0,0,1,.12,1.38A9.6,9.6,0,0,0,139,15a27.07,27.07,0,0,0-2.19,4.11q-1,2.34-1.89,5t-1.47,5.19q-.6,2.52-.9,4.74a21.19,21.19,0,0,0-.24,3.6q0,.18,0,.54l.06.72a1.94,1.94,0,0,0,.15.63q.12.27.3.27t.93-1q.69-1.11,1.59-2.73t1.8-3.39q.9-1.77,1.56-3.15l.75.3a5.9,5.9,0,0,1,.93.48q-.36.66-1.11,2.34t-1.68,3.54a30,30,0,0,1-2,3.45,5.79,5.79,0,0,1-2.1,2.07.85.85,0,0,1-.48.12,2.23,2.23,0,0,1-.54-.06,3.13,3.13,0,0,1-1.74-.75,5.36,5.36,0,0,1-1.2-1.53,10.16,10.16,0,0,1-.78-1.92,12.53,12.53,0,0,1-.42-2q-.66,1-1.38,2.07t-1.44,2q-.72.9-1.35,1.56a3.63,3.63,0,0,1-1.05.84q-1.08.36-2.46-1a10.09,10.09,0,0,1-2.28-4.29,10,10,0,0,1,0-5.88,19.85,19.85,0,0,1,2.55-5.52,19.13,19.13,0,0,1,3.72-4.2,7.41,7.41,0,0,1,3.54-1.86,3.79,3.79,0,0,1,1.89,1.05,4.53,4.53,0,0,1,1.11,1.65q.6-1.86,1.29-3.69t1.47-3.45a33,33,0,0,1,1.59-2.94A10.31,10.31,0,0,1,137.23,9.64ZM122.65,39.76q0,.12.69-.75T125,36.79q1-1.35,2-2.94T128.71,31q.3-1.44.84-3.51t1.26-4.41l-.45-.24a.36.36,0,0,0-.33-.06,12.51,12.51,0,0,0-3.45,2.64,16.56,16.56,0,0,0-2.79,4,16.24,16.24,0,0,0-1.53,4.95A12.59,12.59,0,0,0,122.65,39.76Z"/><path class="cls-1" d="M191,.22a9,9,0,0,1-.39,4.38,5.9,5.9,0,0,1-2,2.64,8.09,8.09,0,0,1-3.09,1.32,16.25,16.25,0,0,1-3.57.33,22,22,0,0,1-3.51-.33q-1.68-.3-2.88-.6-.42-.12-.84-.21l-.9-.21a3.65,3.65,0,0,1,.78,1.86q.12,1-.3,1.26a1.8,1.8,0,0,0-.36.33l-.36.45a17.3,17.3,0,0,0-2.4,4.05A50.51,50.51,0,0,0,169.06,21q-.93,3-1.68,6t-1.26,5.64q-.51,2.58-.78,4.32a10.17,10.17,0,0,0-.21,2,6.8,6.8,0,0,1,0,1.11A4.26,4.26,0,0,1,165,41.2a1.69,1.69,0,0,1-.36.69.46.46,0,0,1-.57,0q-1-.6-2-1.2a3.87,3.87,0,0,1-1.44-2.13,12.85,12.85,0,0,1-.36-4.47,59,59,0,0,1,1.23-8.22A53.84,53.84,0,0,1,164,17.05a46.94,46.94,0,0,1,2.67-5.79,23.81,23.81,0,0,1,3-4.2,1.05,1.05,0,0,0,.3-.12,53.18,53.18,0,0,0-6.72-.42,19.82,19.82,0,0,0-5.76.72,4.37,4.37,0,0,0-2.43,1.56,4.6,4.6,0,0,0-.81,2,5.33,5.33,0,0,0,.24,2.46,4.53,4.53,0,0,1-2.7-2.16A5.24,5.24,0,0,1,151.24,8a6.23,6.23,0,0,1,1.38-3.12,6.56,6.56,0,0,1,3.15-2.13A18,18,0,0,1,161.65,2q3.18.09,6.48.51t6.6.93a41.29,41.29,0,0,0,6.3.51,18.9,18.9,0,0,0,5.55-.78A9.36,9.36,0,0,0,191,.22Z"/><path class="cls-1" d="M173,39.76q.06.18.54-.45a20.89,20.89,0,0,0,1.17-1.77q.69-1.14,1.53-2.67t1.65-3.06q.81-1.53,1.53-2.94t1.14-2.37l.78.3a5.38,5.38,0,0,1,1,.48L181.42,29,180,31.87q-.81,1.59-1.77,3.36t-1.89,3.24a17.84,17.84,0,0,1-1.8,2.43,2.7,2.7,0,0,1-1.47,1,3.63,3.63,0,0,1-2.91-.81,5.18,5.18,0,0,1-1.53-2.76,13.36,13.36,0,0,1-.21-4.2,26.87,26.87,0,0,1,1-5.13q1-2.82,1.92-5.1.84-1.92,1.65-3.57t1.41-1.77a2.53,2.53,0,0,1,1.17-.09,3.8,3.8,0,0,1,1.17.36,2.84,2.84,0,0,1,.9.69,1.43,1.43,0,0,1,.36,1,4.22,4.22,0,0,1-.48,1.38q-.48,1-1.2,2.49t-1.5,3.33a29.77,29.77,0,0,0-1.32,3.9,26.43,26.43,0,0,0-.75,4.14A11.67,11.67,0,0,0,173,39.76Zm6.66-29.1a2.91,2.91,0,0,1,2,1,2.67,2.67,0,0,1,.66,2.1,2.63,2.63,0,0,1-1.08,1.92,3,3,0,0,1-2.16.6,2.8,2.8,0,0,1-2-1,2.73,2.73,0,0,1-.63-2.1,2.66,2.66,0,0,1,1.05-1.92A2.89,2.89,0,0,1,179.65,10.66Z"/><path class="cls-1" d="M210.55,29l.78.48.48.3.36.18A62.23,62.23,0,0,1,209,35.92q-.72,1.14-1.47,2.22A15.47,15.47,0,0,1,206,40.06a9.92,9.92,0,0,1-1.62,1.38,2.79,2.79,0,0,1-1.53.54,4.38,4.38,0,0,1-3.33-1,4.89,4.89,0,0,1-1.35-2.58,9.73,9.73,0,0,1-.06-3.24,16.89,16.89,0,0,1,.66-3q.42-1.2,1-3l1.14-3.39q.66-1.92,1.32-3.9l-4.32,7.56q-.84,1.5-1.71,3l-1.62,2.79-1.35,2.31q-.6,1-.9,1.56a10.12,10.12,0,0,0,.06,1.17,3.28,3.28,0,0,0,.18.81,5.55,5.55,0,0,1,.18.66,2.72,2.72,0,0,1-2.31.06A4,4,0,0,1,188.35,40a6.5,6.5,0,0,1-.33-2.4,22.74,22.74,0,0,1,.3-3.12,33.5,33.5,0,0,1,.75-3.45q.48-1.77,1-3.51-.9,1.38-2,3T186,33.67q-1,1.53-2,2.82a26.06,26.06,0,0,1-1.68,2.07q-.06.84-.09,1.41a2.22,2.22,0,0,1-.15.81,1.44,1.44,0,0,1-.6.6,2.89,2.89,0,0,1-.87.33,2.27,2.27,0,0,1-.9,0,1.31,1.31,0,0,1-.69-.33,4,4,0,0,1-1.14-2.19,12.84,12.84,0,0,1-.24-3.12,24.39,24.39,0,0,1,.42-3.63q.36-1.92.84-3.78A69.89,69.89,0,0,1,182,19.24a1.64,1.64,0,0,1,1.32-.57,4.89,4.89,0,0,1,1.77.27,4.51,4.51,0,0,1,1.47.81A1,1,0,0,1,187,20.8q-.84,1.92-1.56,3.93t-1.29,3.87q-.57,1.86-.93,3.48t-.54,2.7q3.78-5.46,6.24-9.48t4.38-6.54a1,1,0,0,1,.72,0,5.5,5.5,0,0,1,1,.45,11.53,11.53,0,0,1,1.05.66,6.29,6.29,0,0,1,.81.66q.3.36,0,1.59T195.91,25q-.6,1.59-1.29,3.3t-1.11,3a13.83,13.83,0,0,0-.48,1.65q-.18.81-.3,1.53.66-1.08,1.56-2.7t1.92-3.39q1-1.77,2.13-3.54t2.13-3.18a17.27,17.27,0,0,1,1.92-2.28,2.48,2.48,0,0,1,1.5-.87,4.81,4.81,0,0,1,1.83.33,2.38,2.38,0,0,1,1.2,1,3,3,0,0,1,.36,1.62,5.28,5.28,0,0,1-.69,2.22,27.13,27.13,0,0,0-1.47,3.63q-.81,2.37-1.44,4.86a45.14,45.14,0,0,0-.93,4.56,4.87,4.87,0,0,0,.06,2.67q.18.42.81-.12a11.54,11.54,0,0,0,1.44-1.56q.81-1,1.71-2.4t1.68-2.64q.78-1.26,1.35-2.28T210.55,29Z"/><path class="cls-1" d="M218.77,20.8A23.25,23.25,0,0,0,215,25.54,21.12,21.12,0,0,0,213,30a13.63,13.63,0,0,0-.63,3.9,12.3,12.3,0,0,0,.36,3.15,5.71,5.71,0,0,0,1,2.13A2,2,0,0,0,215,40a2.86,2.86,0,0,0,2.28-.9,18.63,18.63,0,0,0,2.61-2.85q1.35-1.77,2.7-4T225,27.94q.48.3.84.57l.78.57q-.78,1.44-1.86,3.63A29.48,29.48,0,0,1,222.19,37a15.93,15.93,0,0,1-3.51,3.54A7.67,7.67,0,0,1,214,42a4.88,4.88,0,0,1-3-.93,7.26,7.26,0,0,1-2-2.37,10.88,10.88,0,0,1-1.11-3.21,15.38,15.38,0,0,1-.27-3.39,14.26,14.26,0,0,1,.9-4,24.63,24.63,0,0,1,2.16-4.59,17.33,17.33,0,0,1,2.91-3.69,4.23,4.23,0,0,1,3.21-1.38,7.9,7.9,0,0,1,4.35,1.47,5.74,5.74,0,0,1,2,2.85,5.83,5.83,0,0,1,0,3.36A6.63,6.63,0,0,1,221.38,29a6.09,6.09,0,0,1-3.06,1.59,6.43,6.43,0,0,1-4-.63q.12-.12.63-.72t1.17-1.44a22.08,22.08,0,0,0,1.32-1.89,18.77,18.77,0,0,0,1.11-2,7.31,7.31,0,0,0,.6-1.8A1.41,1.41,0,0,0,218.77,20.8Z"/></svg>